<svg xmlns="http://www.w3.org/2000/svg" width="24" height="24" viewBox="0 0 24 24">
  <g id="Group_761" data-name="Group 761" transform="translate(0.012 0.002)">
    <rect id="Rectangle_1924" data-name="Rectangle 1924" width="24" height="24" transform="translate(-0.012 -0.002)" fill="none"/>
    <path id="Subtraction_15" data-name="Subtraction 15" d="M-3265-7844a9.01,9.01,0,0,1-9-9,9.01,9.01,0,0,1,9-9,9.011,9.011,0,0,1,9,9A9.011,9.011,0,0,1-3265-7844Zm-3.478-9.612a.675.675,0,0,0-.675.676.675.675,0,0,0,.675.673h2.867v2.868a.674.674,0,0,0,.675.674.674.674,0,0,0,.675-.674v-2.868h2.867a.675.675,0,0,0,.675-.673.675.675,0,0,0-.675-.676h-2.867v-2.866a.676.676,0,0,0-.675-.676.676.676,0,0,0-.675.676v2.866Z" transform="translate(3276.987 7864.999)" fill="#666"/>
  </g>
</svg>
