<svg id="house_age_icon" data-name="house age icon" xmlns="http://www.w3.org/2000/svg" width="24" height="24" viewBox="0 0 24 24">
    <rect id="Rectangle_1924" data-name="Rectangle 1924" width="24" height="24" fill="none"/>
    <g id="Group_803" data-name="Group 803" transform="translate(2 4)">
        <path id="Path_1511" data-name="Path 1511" d="M32.042,16.1l-4.5-4.5V8.635a.669.669,0,0,0-1.338,0v1.628L23.035,7.091a.669.669,0,0,0-.946,0l-4.15,4.15a.669.669,0,0,0,.946.946l3.677-3.678L31.1,17.044a.669.669,0,0,0,.946-.946Z" transform="translate(-11.968 -6.895)" fill="#666"/>
        <path id="Path_1512" data-name="Path 1512" d="M33.49,22.425,26.4,15.331a.669.669,0,0,0-.946,0l-2.726,2.726a6.054,6.054,0,0,1,3.319,4.768A1.2,1.2,0,0,1,27.008,24V26.54a1.619,1.619,0,0,0,1.617,1.617h3.462A1.619,1.619,0,0,0,33.7,26.54V23.078a1.576,1.576,0,0,0-.03-.306A.67.67,0,0,0,33.49,22.425Z" transform="translate(-15.329 -12.453)" fill="#666"/>
        <path id="Path_1513" data-name="Path 1513" d="M5.065,24.264a5.065,5.065,0,1,0,5.065,5.065A5.065,5.065,0,0,0,5.065,24.264Z" transform="translate(0 -18.611)" fill="#666"/>
        <path id="Path_1514" data-name="Path 1514" d="M17.485,7.347H14.359a.4.4,0,0,1-.4-.4V3.817a.4.4,0,1,1,.807,0V6.54h2.723a.4.4,0,1,1,0,.807Z" transform="translate(-9.366 4.105)" fill="#fff"/>
    </g>
</svg>
