<svg id="Bedrooms_Icon" data-name="Bedrooms Icon" xmlns="http://www.w3.org/2000/svg" width="24" height="24" viewBox="0 0 24 24">
    <rect id="Rectangle_1924" data-name="Rectangle 1924" width="24" height="24" fill="none"/>
    <g id="hotel" transform="translate(1.376 -82.391)">
        <path id="Path_1497" data-name="Path 1497" d="M44.027,91.974a1.966,1.966,0,0,1,1.964-1.964H50.4a1.964,1.964,0,0,1,1.64.885,1.964,1.964,0,0,1,1.64-.885h4.409a1.966,1.966,0,0,1,1.964,1.964v.09h.492V90.149a2.158,2.158,0,0,0-2.155-2.155H45.69a2.158,2.158,0,0,0-2.155,2.155v1.915h.492v-.09Z" transform="translate(-41.664 0)" fill="#666"/>
        <path id="Path_1498" data-name="Path 1498" d="M19.925,204.076H.825A.826.826,0,0,0,0,204.9v4.792a.826.826,0,0,0,.825.825h.344l-.406,1.146a.459.459,0,1,0,.865.306l.515-1.452H18.609l.515,1.452a.459.459,0,1,0,.865-.306l-.406-1.146h.344a.826.826,0,0,0,.825-.825V204.9A.826.826,0,0,0,19.925,204.076Z" transform="translate(0 -111.094)" fill="#666"/>
        <path id="Path_1499" data-name="Path 1499" d="M256.31,156.262a1.048,1.048,0,0,0-1.047,1.047v.09h6.5v-.09a1.048,1.048,0,0,0-1.047-1.047Z" transform="translate(-244.295 -65.335)" fill="#666"/>
        <path id="Path_1500" data-name="Path 1500" d="M77.372,156.262a1.048,1.048,0,0,0-1.047,1.047v.09h6.5v-.09a1.048,1.048,0,0,0-1.047-1.047Z" transform="translate(-73.045 -65.335)" fill="#666"/>
    </g>
</svg>
