<svg xmlns="http://www.w3.org/2000/svg" width="40" height="40" viewBox="0 0 40 40">
    <defs>
        <style>
            .cls-2{fill:#fff}
        </style>
    </defs>
    <g id="Group_7268" transform="translate(-2547 -17413)">
        <path id="Rectangle_1924" fill="none" d="M0 0H40V40H0z" transform="translate(2547 17413)"/>
        <g id="home-approved" transform="translate(2553.723 17423.086)">
            <g id="Group_7122">
                <path id="Path_2592" d="M36.048 18.676l-5.756-5.757v-3.8a.857.857 0 0 0-1.713 0v2.084l-4.062-4.057a.856.856 0 0 0-1.211 0l-5.313 5.313A.856.856 0 0 0 19.2 13.67l4.707-4.709 10.93 10.926a.856.856 0 0 0 1.211-1.211z" class="cls-2" transform="translate(-10.35 -6.895)"/>
                <path id="Path_2593" d="M36.505 24.467l-9.08-9.081a.856.856 0 0 0-1.211 0l-3.489 3.489a7.75 7.75 0 0 1 4.249 6.1 1.534 1.534 0 0 1 1.233 1.5v3.255a2.072 2.072 0 0 0 2.07 2.07h4.432a2.073 2.073 0 0 0 2.071-2.07V25.3a2.017 2.017 0 0 0-.039-.392.857.857 0 0 0-.236-.441z" class="cls-2" transform="translate(-13.257 -11.702)"/>
                <path id="Subtraction_25" d="M-2547.238-17410.117a6.493 6.493 0 0 1-6.485-6.484 6.493 6.493 0 0 1 6.485-6.484 6.493 6.493 0 0 1 6.485 6.484 6.493 6.493 0 0 1-6.485 6.484zm-3.568-10.205a.625.625 0 0 0-.625.625 7.181 7.181 0 0 0 7.171 7.176.625.625 0 0 0 .625-.625v-1.43a.627.627 0 0 0-.625-.627 4.43 4.43 0 0 1-1.391-.223.583.583 0 0 0-.19-.029.615.615 0 0 0-.427.16l-.879.666a4.882 4.882 0 0 1-2.177-2.182l.643-.854a.625.625 0 0 0 .153-.639 4.521 4.521 0 0 1-.223-1.395.625.625 0 0 0-.625-.625z" class="cls-2" transform="translate(2553.723 17430.322)"/>
            </g>
        </g>
    </g>
</svg>
