<?xml version="1.0" encoding="UTF-8"?>
<svg xmlns="http://www.w3.org/2000/svg" xmlns:xlink="http://www.w3.org/1999/xlink" width="16pt" height="16pt" viewBox="0 0 16 16" version="1.1">
<g id="surface1">
<path style=" stroke:none;fill-rule:nonzero;fill:rgb(40%,40%,40%);fill-opacity:1;" d="M 9.410156 4.003906 L 2.8125 10.605469 C 2.777344 10.636719 2.753906 10.679688 2.742188 10.726562 L 2.011719 13.660156 C 1.988281 13.75 2.015625 13.84375 2.078125 13.910156 C 2.144531 13.972656 2.238281 14 2.324219 13.976562 L 5.261719 13.242188 C 5.308594 13.234375 5.351562 13.210938 5.382812 13.175781 L 11.984375 6.578125 Z M 9.410156 4.003906 "/>
<path style=" stroke:none;fill-rule:nonzero;fill:rgb(40%,40%,40%);fill-opacity:1;" d="M 13.621094 3.101562 L 12.886719 2.367188 C 12.371094 1.878906 11.5625 1.878906 11.046875 2.367188 L 10.148438 3.269531 L 12.71875 5.839844 L 13.621094 4.941406 C 14.128906 4.433594 14.128906 3.609375 13.621094 3.101562 Z M 13.621094 3.101562 "/>
</g>
</svg>
