<svg xmlns="http://www.w3.org/2000/svg" width="40" height="40" viewBox="0 0 40 40">
    <defs>
        <style>
            .cls-2{fill:#fff}
        </style>
    </defs>
    <g id="Group_7267" transform="translate(-2558.792 -17358)">
        <path id="Rectangle_1924" fill="none" d="M0 0H40V40H0z" transform="translate(2558.792 17358)"/>
        <g id="house-search" transform="translate(2565.588 17367.877)">
            <g id="Group_7119">
                <path id="Path_2582" d="M36.435 18.025l-5.669-5.668V8.618a.844.844 0 1 0-1.688 0v2.052l-4-4a.843.843 0 0 0-1.192 0l-7.74 7.741a6.638 6.638 0 0 1 1.8.585l6.538-6.537 10.76 10.759a.843.843 0 0 0 1.192-1.193z" class="cls-2" transform="translate(-9.522 -6.424)"/>
                <path id="Path_2583" d="M37.524 23.851l-8.942-8.943a.842.842 0 0 0-1.192 0l-5.3 5.306a6.669 6.669 0 0 1 2.466 8.465l1.488 1.488c.046.046.089.094.131.145a2.027 2.027 0 0 0 .45-1.274v-3.205a1.511 1.511 0 0 1 1.366-1.5 1.511 1.511 0 0 1 1.366 1.5v3.205a2.044 2.044 0 0 0 2.04 2.04h4.364a2.042 2.042 0 0 0 2.04-2.04v-4.364a2 2 0 0 0-.038-.386.862.862 0 0 0-.239-.437z" class="cls-2" transform="translate(-13.024 -11.281)"/>
                <path id="Path_2584" d="M10.042 37.082a5.49 5.49 0 1 0-1.852 1.725L10.381 41a1.265 1.265 0 0 0 1.788-1.788zm-4.56.758a3.8 3.8 0 1 1 3.8-3.8 3.8 3.8 0 0 1-3.8 3.8z" class="cls-2" transform="translate(0 -19.48)"/>
            </g>
        </g>
    </g>
</svg>
