<svg xmlns="http://www.w3.org/2000/svg" width="40" height="40" viewBox="0 0 40 40">
    <defs>
        <style>
            .cls-3{fill:#fff}
        </style>
    </defs>
    <g id="Group_7266" transform="translate(-2539.829 -17268)">
        <path id="Rectangle_1924" fill="none" d="M0 0H40V40H0z" transform="translate(2539.829 17268)"/>
        <g id="buy-house" opacity="0.996" transform="translate(2546.636 17277.957)">
            <g id="Group_7120">
                <path id="Path_2585" d="M40.651 18.582l-5.643-5.642V9.219a.84.84 0 1 0-1.679 0v2.043l-3.98-3.981a.838.838 0 0 0-1.187 0l-5.911 5.91a.839.839 0 0 0 1.187 1.187l5.317-5.317L39.464 19.77a.839.839 0 0 0 1.187-1.187z" class="cls-3" transform="translate(-13.019 -7.035)"/>
                <path id="Path_2586" d="M40.576 24.422l-8.9-8.9a.839.839 0 0 0-1.187 0l-4.551 4.551h.041a1.33 1.33 0 0 1 1.321 1.184v.02h.065a1.328 1.328 0 0 1 1.311 1.566v.02h.019a1.329 1.329 0 0 1 .86 1.884l-.009.018.017.009a1.311 1.311 0 0 1 .542.621 1.319 1.319 0 0 1 2.338 1v3.19a2.03 2.03 0 0 0 2.029 2.029h4.345a2.032 2.032 0 0 0 2.029-2.028v-4.345a2.129 2.129 0 0 0-.038-.385.852.852 0 0 0-.232-.434z" class="cls-3" transform="translate(-15.346 -11.91)"/>
                <path id="Path_2587" d="M14.266 32.134a.737.737 0 0 0-.352-.528l-.494-.293.257-.513a.737.737 0 0 0-.475-1.042l-.556-.141.1-.565a.733.733 0 0 0-.75-.864l-.573.02-.061-.57a.733.733 0 0 0-.963-.618l-.544.182-.22-.531a.734.734 0 0 0-1.1-.322l-.471.328-.36-.448a.734.734 0 0 0-1.144 0l-.36.447-.471-.328a.734.734 0 0 0-1.1.322l-.219.531-.544-.182a.733.733 0 0 0-.963.618l-.061.57-.574-.02a.747.747 0 0 0-.582.252.734.734 0 0 0-.167.612l.1.566-.556.141A.735.735 0 0 0 .6 30.8l.258.513-.495.293A.734.734 0 0 0 .2 32.738l.392.419-.392.419a.734.734 0 0 0 .163 1.132L.854 35l-.254.515a.734.734 0 0 0 .476 1.041l.556.143-.1.565a.734.734 0 0 0 .749.865l.574-.021.06.57a.734.734 0 0 0 .963.618l.544-.181.219.53a.734.734 0 0 0 1.1.323l.472-.328.36.447a.734.734 0 0 0 1.144 0l.361-.447.471.328a.734.734 0 0 0 1.1-.323l.219-.53.544.181a.734.734 0 0 0 .962-.617l.061-.57.574.021a.734.734 0 0 0 .749-.865l-.1-.565.556-.143a.733.733 0 0 0 .475-1.041L13.418 35l.494-.293a.735.735 0 0 0 .164-1.132l-.392-.419.392-.42a.734.734 0 0 0 .19-.602zM1.942 33.525l-.422-.194.954-2.474.35.158zm5.888 3.317L3.148 33.72l.421-2.159 2.191-1.212.425.267-1.146 2.119a.317.317 0 0 0 .107.416l.979.629a.317.317 0 0 0 .4-.047l1.332-1.392 2.861 2.476zm2.861-2.878l-2.65-2.3a.371.371 0 0 0-.1-.059.267.267 0 0 0-.041-.005.294.294 0 0 0-.067-.011h-.022a.281.281 0 0 0-.1.025h-.007a.33.33 0 0 0-.1.067L6.248 33.11l-.515-.332L6.8 30.8l1.342-.178 2.4.967.513 1.938zm1.467-.684l-.953-2.308.425-.192 1.08 2.345z" class="cls-3" transform="translate(0 -18.228)"/>
            </g>
        </g>
    </g>
</svg>
