<svg xmlns="http://www.w3.org/2000/svg" width="40" height="40" viewBox="0 0 40 40">
    <defs>
        <style>
            .cls-2{fill:#fff}
        </style>
    </defs>
    <g id="Group_7269" transform="translate(-2541 -17540)">
        <path id="Rectangle_1924" fill="none" d="M0 0H40V40H0z" transform="translate(2541 17540)"/>
        <g id="favorite-home" transform="translate(2545.973 17549.945)">
            <g id="Group_7124">
                <path id="Path_2597" d="M43.231 22.744l-5.708-5.708v-3.765a.85.85 0 0 0-1.7 0v2.066L31.8 11.311a.848.848 0 0 0-1.2 0l-7.631 7.632.668 1.733 7.563-7.564 10.831 10.833a.849.849 0 1 0 1.2-1.2z" class="cls-2" transform="translate(-13.478 -11.062)"/>
                <path id="Path_2598" d="M42.308 28.554l-9-9a.848.848 0 0 0-1.2 0l-6.573 6.573 3.05.164a2.159 2.159 0 0 1 1.244 3.832l-2.493 2.025.827 3.106a2.125 2.125 0 0 1 .069.58h1.048a2.058 2.058 0 0 0 2.053-2.053v-3.232a1.382 1.382 0 1 1 2.752 0v3.227a2.056 2.056 0 0 0 2.052 2.053h4.395a2.056 2.056 0 0 0 2.054-2.053v-4.393a1.939 1.939 0 0 0-.039-.389.851.851 0 0 0-.239-.44z" class="cls-2" transform="translate(-14.984 -15.897)"/>
                <path id="Path_2599" d="M10.983 36.866l3.1-2.518a.955.955 0 0 0-.551-1.695l-3.986-.215-1.438-3.726a.955.955 0 0 0-1.782 0l-1.437 3.726-3.989.215a.955.955 0 0 0-.551 1.695l3.1 2.518-1.025 3.858a.956.956 0 0 0 1.442 1.048L7.217 39.6l3.351 2.169a.956.956 0 0 0 1.443-1.048z" class="cls-2" transform="translate(.001 -21.062)"/>
            </g>
        </g>
    </g>
</svg>
