<?xml version="1.0" encoding="UTF-8"?>
<svg xmlns="http://www.w3.org/2000/svg" xmlns:xlink="http://www.w3.org/1999/xlink" width="16pt" height="16pt" viewBox="0 0 16 16" version="1.1">
<g id="surface1">
<path style=" stroke:none;fill-rule:nonzero;fill:rgb(40%,40%,40%);fill-opacity:1;" d="M 11.960938 4.402344 L 4.691406 4.402344 C 4.335938 4.402344 4.035156 4.675781 4.003906 5.03125 C 3.972656 5.390625 4.21875 5.710938 4.570312 5.773438 L 4.570312 13.402344 C 4.570312 13.734375 4.839844 14.003906 5.171875 14.003906 L 11.484375 14.003906 C 11.816406 14.003906 12.085938 13.734375 12.085938 13.402344 L 12.085938 5.777344 C 12.4375 5.714844 12.6875 5.394531 12.65625 5.035156 C 12.621094 4.679688 12.324219 4.40625 11.964844 4.40625 Z M 7.425781 11.496094 C 7.425781 11.898438 7.097656 12.230469 6.691406 12.230469 C 6.289062 12.230469 5.960938 11.898438 5.960938 11.496094 L 5.960938 6.917969 C 5.960938 6.511719 6.289062 6.183594 6.691406 6.183594 C 7.097656 6.183594 7.425781 6.511719 7.425781 6.917969 Z M 10.6875 11.496094 C 10.6875 11.898438 10.359375 12.230469 9.953125 12.230469 C 9.546875 12.230469 9.21875 11.898438 9.21875 11.496094 L 9.21875 6.917969 C 9.21875 6.511719 9.546875 6.183594 9.953125 6.183594 C 10.359375 6.183594 10.6875 6.511719 10.6875 6.917969 Z M 10.6875 11.496094 "/>
<path style=" stroke:none;fill-rule:nonzero;fill:rgb(40%,40%,40%);fill-opacity:1;" d="M 4.691406 4.027344 L 11.957031 4.027344 C 12.339844 4.027344 12.652344 3.71875 12.652344 3.335938 C 12.652344 2.953125 12.339844 2.644531 11.957031 2.644531 L 10.5625 2.644531 C 10.539062 2.28125 10.238281 2 9.875 2 L 6.78125 2 C 6.417969 2 6.113281 2.28125 6.089844 2.644531 L 4.691406 2.644531 C 4.308594 2.644531 4 2.953125 4 3.335938 C 4 3.71875 4.308594 4.027344 4.691406 4.027344 Z M 4.691406 4.027344 "/>
</g>
</svg>
