<svg id="Capa_1" enable-background="new 0 0 512 512" height="512" viewBox="0 0 512 512" width="512" xmlns="http://www.w3.org/2000/svg"><g><g><g><path d="m427.34 200.834c-15.802 15.553-37.468 25.166-61.34 25.166s-45.538-9.613-61.34-25.166c-26.427 19.087-43.66 50.15-43.66 85.166v50c0 8.284 6.716 15 15 15h180c8.284 0 15-6.716 15-15v-50c0-35.016-17.233-66.079-43.66-85.166z"/></g><path d="m366 196c-31.705 0-57.5-25.794-57.5-57.5s25.795-57.5 57.5-57.5 57.5 25.794 57.5 57.5-25.795 57.5-57.5 57.5z"/></g><g><path d="m144.284 470c-3.839 0-7.678-1.464-10.606-4.394l-28.284-28.284c-5.858-5.858-5.858-15.355 0-21.213 5.857-5.858 15.355-5.858 21.213 0l17.678 17.677 45.962-45.961c.242-.242.5-.459.754-.682v-10.143c0-8.284-6.716-15-15-15h-120.001c-8.284 0-15 6.716-15 15v120c0 8.284 6.716 15 15 15h120c8.284 0 15-6.716 15-15v-67.503l-36.109 36.109c-2.929 2.93-6.768 4.394-10.607 4.394z"/><path d="m191 387.144v42.353l20.459-20.459c5.858-5.858 5.858-15.355 0-21.213-5.615-5.616-14.567-5.833-20.459-.681z"/><path d="m144.284 289c-3.839 0-7.678-1.464-10.606-4.394l-28.284-28.284c-5.858-5.858-5.858-15.355 0-21.213 5.857-5.858 15.355-5.858 21.213 0l17.678 17.677 45.962-45.961c.242-.242.5-.459.754-.682v-10.143c0-8.284-6.716-15-15-15h-120.001c-8.284 0-15 6.716-15 15v120c0 8.284 6.716 15 15 15h120c8.284 0 15-6.716 15-15v-67.503l-36.109 36.109c-2.929 2.93-6.768 4.394-10.607 4.394z"/><path d="m191 206.144v42.353l20.459-20.459c5.858-5.858 5.858-15.355 0-21.213-5.615-5.616-14.567-5.833-20.459-.681z"/><path d="m56 150h120c8.284 0 15-6.716 15-15v-67.503l-36.109 36.109c-2.929 2.929-6.768 4.394-10.606 4.394s-7.678-1.464-10.606-4.394l-28.284-28.284c-5.858-5.858-5.858-15.355 0-21.213 5.857-5.858 15.355-5.858 21.213 0l17.678 17.677 45.962-45.961c.242-.242.5-.459.754-.682v-10.143c0-8.284-6.716-15-15-15h-120.002c-8.284 0-15 6.716-15 15v120c0 8.284 6.716 15 15 15z"/><path d="m211.459 47.038c5.858-5.858 5.858-15.355 0-21.213-5.615-5.616-14.567-5.833-20.459-.682v42.353z"/></g></g></svg>