<svg xmlns="http://www.w3.org/2000/svg" width="40" height="40" viewBox="0 0 40 40">
    <defs>
        <style>
            .cls-2{fill:#fff}
        </style>
    </defs>
    <g id="Group_7265" transform="translate(-2562.192 -17211)">
        <path id="Rectangle_1924" fill="none" d="M0 0H40V40H0z" transform="translate(2562.192 17211)"/>
        <g id="house-visiting" transform="translate(2566.997 17221.057)">
            <g id="Group_7121">
                <path id="Path_2588" d="M7.43 159.719a2.961 2.961 0 1 0-3.171 0A5.845 5.845 0 0 0 0 165.344c0 3.228 11.688 3.228 11.688 0a5.845 5.845 0 0 0-4.258-5.625z" class="cls-2" transform="translate(0 -147.723)"/>
                <path id="Path_2589" d="M174.389 78.894l-5.652-5.652v-3.727a.841.841 0 0 0-1.683 0v2.045l-3.988-3.987a.84.84 0 0 0-1.188 0l-5.663 5.663a3.015 3.015 0 0 1 1.119 1.26l5.139-5.139L173.2 80.084a.841.841 0 1 0 1.188-1.19z" class="cls-2" transform="translate(-144.466 -67.327)"/>
                <path id="Path_2590" d="M172.375 121.3l-8.915-8.915a.838.838 0 0 0-1.189 0l-4.3 4.3a2.953 2.953 0 0 1-.16 1.63 4.776 4.776 0 0 1 1.968 3.852c0 .541-.243 1.763-2.292 2.352a7 7 0 0 1 .254 1.865 2.625 2.625 0 0 1-1.1 2.117h2.831a2.038 2.038 0 0 0 2.033-2.033v-3.2a1.368 1.368 0 1 1 2.724 0v3.2a2.037 2.037 0 0 0 2.033 2.033h4.352a2.036 2.036 0 0 0 2.033-2.033v-4.352a1.968 1.968 0 0 0-.038-.385.839.839 0 0 0-.234-.431z" class="cls-2" transform="translate(-144.859 -108.766)"/>
                <path id="Path_2591" d="M113.921 160.772a6.466 6.466 0 0 1 3.04 2.979c1.188-.2 2.118-.651 2.118-1.361a3.568 3.568 0 0 0-2.6-3.432 1.806 1.806 0 1 0-2.427-2.587 3.544 3.544 0 0 1-.132 4.4z" class="cls-2" transform="translate(-105.353 -148.986)"/>
            </g>
        </g>
    </g>
</svg>
